
<svg xmlns="http://www.w3.org/2000/svg" version="1.1" xmlns:xlink="http://www.w3.org/1999/xlink" preserveAspectRatio="none" x="0px" y="0px" width="800px" height="600px" viewBox="0 0 800 600">
<defs>
<filter id="Filter_1" x="-20%" y="-20%" width="140%" height="140%" color-interpolation-filters="sRGB">
<feColorMatrix in="SourceGraphic" type="matrix" values="1 0 0 0 0 0 1 0 0 0 0 0 1 0 0 0 0 0 0 0" result="result1"/>
</filter>

<g id="Symbol_1_0_Layer0_0_MEMBER_0_FILL">
<path fill="#FFFFFF" stroke="none" d="
M 649.05 339.95
L 649.05 263.15 170.5 263.15 170.5 339.95 649.05 339.95 Z"/>
</g>

<g id="Symbol_1_0_Layer0_0_MEMBER_1_FILL">
<path fill="#FFFFFF" stroke="none" d="
M 1238.45 695.55
L 1161.7 695.55 1161.7 1005.2 1238.45 1005.2 1238.45 695.55 Z"/>
</g>

<g id="Symbol_1_0_Layer0_0_MEMBER_2_FILL">
<path fill="#FFFFFF" stroke="none" d="
M 1392.1 695.55
L 1315.3 695.55 1315.3 1005.2 1392.1 1005.2 1392.1 695.55 Z"/>
</g>

<g id="Symbol_7_0_Layer0_0_FILL">
<path fill="#FFFFFF" stroke="none" d="
M 0 0
L 0 11.65 11.6 11.65 11.6 0 0 0 Z"/>
</g>

<g id="Symbol_6_0_Layer0_0_FILL">
<path fill="#FFFFFF" stroke="none" d="
M 0 0
L 0 7.15 7.15 7.15 7.15 0 0 0 Z"/>
</g>

<g id="Symbol_5_0_Layer0_0_FILL">
<path fill="#FFFFFF" stroke="none" d="
M 0 0
L 0 25.6 25.6 25.6 25.6 0 0 0 Z"/>
</g>

<g id="Symbol_4_0_Layer0_0_FILL">
<path fill="#FFFFFF" stroke="none" d="
M 0 0
L 0 19.45 19.45 19.45 19.45 0 0 0 Z"/>
</g>

<g id="Symbol_3_0_Layer0_0_FILL">
<path fill="#FFFFFF" stroke="none" d="
M 0 0
L 0 17.85 17.85 17.85 17.85 0 0 0 Z"/>
</g>

<g id="Symbol_2_0_Layer0_0_FILL">
<path fill="#FFFFFF" stroke="none" d="
M 0 0
L 0 12.25 12.25 12.25 12.25 0 0 0 Z"/>
</g>

<path id="Symbol_7_0_Layer0_0_1_STROKES" stroke="#FFFFFF" stroke-width="1" stroke-linejoin="round" stroke-linecap="round" fill="none" d="
M 0 0
L 11.6 0 11.6 11.65 0 11.65 0 0 Z"/>

<path id="Symbol_6_0_Layer0_0_1_STROKES" stroke="#FFFFFF" stroke-width="1" stroke-linejoin="round" stroke-linecap="round" fill="none" d="
M 0 0
L 7.15 0 7.15 7.15 0 7.15 0 0 Z"/>

<path id="Symbol_5_0_Layer0_0_1_STROKES" stroke="#FFFFFF" stroke-width="1" stroke-linejoin="round" stroke-linecap="round" fill="none" d="
M 0 0
L 25.6 0 25.6 25.6 0 25.6 0 0 Z"/>

<path id="Symbol_4_0_Layer0_0_1_STROKES" stroke="#FFFFFF" stroke-width="1" stroke-linejoin="round" stroke-linecap="round" fill="none" d="
M 0 0
L 19.45 0 19.45 19.45 0 19.45 0 0 Z"/>

<path id="Symbol_2_0_Layer0_0_1_STROKES" stroke="#FFFFFF" stroke-width="1" stroke-linejoin="round" stroke-linecap="round" fill="none" d="
M 0 0
L 12.25 0 12.25 12.25 0 12.25 0 0 Z"/>
</defs>

<g transform="matrix( 1, 0, 0, 1, 400,300) ">
<g transform="matrix( 0.3441619873046875, 0, 0, 0.3441619873046875, -141.05,-103.35) ">
<use xlink:href="#Symbol_1_0_Layer0_0_MEMBER_0_FILL"/>
</g>

<g transform="matrix( 0.3441619873046875, 0, 0, 0.3441619873046875, -439,-292.65) ">
<use xlink:href="#Symbol_1_0_Layer0_0_MEMBER_1_FILL"/>
</g>

<g transform="matrix( 0.3441619873046875, 0, 0, 0.3441619873046875, -439,-292.65) ">
<use xlink:href="#Symbol_1_0_Layer0_0_MEMBER_2_FILL"/>
</g>
</g>

<g transform="matrix( 1, 0, 0, 1, 398.85,297.15) ">
<g transform="matrix( 1, 0, 0, 1, -427.35,-235.85) ">
<g transform="matrix( 1, 0, 0, 1, 0,0) ">
<use filter="url(#Filter_1)" xlink:href="#Symbol_7_0_Layer0_0_FILL"/>

<use filter="url(#Filter_1)" xlink:href="#Symbol_7_0_Layer0_0_1_STROKES"/>
</g>
</g>

<g transform="matrix( 1, 0, 0, 1, -491.35,-136.65) ">
<g transform="matrix( 1, 0, 0, 1, 0,0) ">
<use filter="url(#Filter_1)" xlink:href="#Symbol_7_0_Layer0_0_FILL"/>

<use filter="url(#Filter_1)" xlink:href="#Symbol_7_0_Layer0_0_1_STROKES"/>
</g>
</g>

<g transform="matrix( 1, 0, 0, 1, 404.65,-203.85) ">
<g transform="matrix( 1, 0, 0, 1, 0,0) ">
<use filter="url(#Filter_1)" xlink:href="#Symbol_7_0_Layer0_0_FILL"/>

<use filter="url(#Filter_1)" xlink:href="#Symbol_7_0_Layer0_0_1_STROKES"/>
</g>
</g>

<g transform="matrix( 1, 0, 0, 1, -155.35,212.15) ">
<g transform="matrix( 1, 0, 0, 1, 0,0) ">
<use filter="url(#Filter_1)" xlink:href="#Symbol_7_0_Layer0_0_FILL"/>

<use filter="url(#Filter_1)" xlink:href="#Symbol_7_0_Layer0_0_1_STROKES"/>
</g>
</g>

<g transform="matrix( 1, 0, 0, 1, -395.35,228.15) ">
<g transform="matrix( 1, 0, 0, 1, 0,0) ">
<use filter="url(#Filter_1)" xlink:href="#Symbol_7_0_Layer0_0_FILL"/>

<use filter="url(#Filter_1)" xlink:href="#Symbol_7_0_Layer0_0_1_STROKES"/>
</g>
</g>

<g transform="matrix( 1, 0, 0, 1, 420.65,130.55) ">
<g transform="matrix( 1, 0, 0, 1, 0,0) ">
<use filter="url(#Filter_1)" xlink:href="#Symbol_7_0_Layer0_0_FILL"/>

<use filter="url(#Filter_1)" xlink:href="#Symbol_7_0_Layer0_0_1_STROKES"/>
</g>
</g>

<g transform="matrix( 1, 0, 0, 1, -86.55,4.15) ">
<g transform="matrix( 1, 0, 0, 1, 0,0) ">
<use filter="url(#Filter_1)" xlink:href="#Symbol_7_0_Layer0_0_FILL"/>

<use filter="url(#Filter_1)" xlink:href="#Symbol_7_0_Layer0_0_1_STROKES"/>
</g>
</g>

<g transform="matrix( 1, 0, 0, 1, -155.35,212.15) ">
<g transform="matrix( 1, 0, 0, 1, 0,0) ">
<use filter="url(#Filter_1)" xlink:href="#Symbol_7_0_Layer0_0_FILL"/>

<use filter="url(#Filter_1)" xlink:href="#Symbol_7_0_Layer0_0_1_STROKES"/>
</g>
</g>

<g transform="matrix( 1, 0, 0, 1, -464.15,-85.85) ">
<g transform="matrix( 1, 0, 0, 1, 0,0) ">
<use xlink:href="#Symbol_6_0_Layer0_0_FILL"/>

<use xlink:href="#Symbol_6_0_Layer0_0_1_STROKES"/>
</g>
</g>

<g transform="matrix( 0.5859375, 0, 0, 0.5859375, 204.65,398.2) ">
<g transform="matrix( 1, 0, 0, 1, 0,0) ">
<use xlink:href="#Symbol_5_0_Layer0_0_FILL"/>

<use xlink:href="#Symbol_5_0_Layer0_0_1_STROKES"/>
</g>
</g>

<g transform="matrix( 1, 0, 0, 1, 454.85,-121.8) ">
<g transform="matrix( 1, 0, 0, 1, 0,0) ">
<use xlink:href="#Symbol_4_0_Layer0_0_FILL"/>

<use xlink:href="#Symbol_4_0_Layer0_0_1_STROKES"/>
</g>
</g>

<g transform="matrix( 1, 0, 0, 1, -126.6,-353.45) ">
<g transform="matrix( 1, 0, 0, 1, 0,0) ">
<use xlink:href="#Symbol_3_0_Layer0_0_FILL"/>
</g>
</g>

<g transform="matrix( 1, 0, 0, 1, -446.15,236) ">
<g transform="matrix( 1, 0, 0, 1, 0,0) ">
<use xlink:href="#Symbol_2_0_Layer0_0_FILL"/>

<use xlink:href="#Symbol_2_0_Layer0_0_1_STROKES"/>
</g>
</g>
</g>
</svg>
